<svg id="SvgjsSvg1011" width="256" height="256" xmlns="http://www.w3.org/2000/svg" version="1.1"
  xmlns:xlink="http://www.w3.org/1999/xlink" xmlns:svgjs="http://svgjs.com/svgjs">
  <defs id="SvgjsDefs1012"></defs>
  <g id="SvgjsG1013"><svg xmlns="http://www.w3.org/2000/svg" fill="none" viewBox="0 0 40 40" width="256" height="256">
      <path fill="#00dc82" fill-rule="evenodd"
        d="M16.3838 11.3275C15.9888 10.6895 15.058 10.6976 14.6742 11.3424L5.65868 26.4885C5.26191 27.1551 5.74224 28 6.51797 28H14.8497C15.2058 28 15.535 27.8107 15.7141 27.5029L20.8899 18.6066L16.3838 11.3275ZM22.0295 16.6478L18.0843 10.2748C16.8995 8.3608 14.107 8.38508 12.9556 10.3194L3.94009 25.4655L4.79939 25.977L3.94009 25.4655C2.74978 27.4653 4.19079 30 6.51797 30H14.8497C15.918 30 16.9056 29.432 17.4428 28.5086L25.5678 14.5432C25.9579 13.8727 26.9296 13.8824 27.3063 14.5604L33.9474 26.5144C34.3177 27.1809 33.8357 28 33.0732 28H24C23.4477 28 23 28.4477 23 29C23 29.5523 23.4477 30 24 30H33.0732C35.3607 30 36.8066 27.5427 35.6957 25.5431L29.0546 13.5891C27.9245 11.555 25.0093 11.5261 23.8391 13.5374L22.0295 16.6478Z"
        clip-rule="evenodd" class="color00DC82 svgShape"></path>
    </svg></g>
</svg>
