<svg id="SvgjsSvg1016" width="256" height="256" xmlns="http://www.w3.org/2000/svg" version="1.1"
  xmlns:xlink="http://www.w3.org/1999/xlink" xmlns:svgjs="http://svgjs.com/svgjs">
  <defs id="SvgjsDefs1017"></defs>
  <g id="SvgjsG1018"><svg xmlns="http://www.w3.org/2000/svg" fill="none" viewBox="0 0 40 40" width="256" height="256">
      <path fill="#6dc6e9" fill-rule="evenodd"
        d="M14.3349 7.01342C13.4644 6.72314 12.8808 6.78975 12.5 7.00962C12.1192 7.2295 11.7697 7.70154 11.5858 8.60064C11.4022 9.49821 11.4132 10.7032 11.6554 12.1593C11.7414 12.6764 11.8554 13.2183 11.9969 13.7809C13.2644 13.5151 14.6287 13.3113 16.0618 13.1787C16.8931 12.004 17.7517 10.9244 18.6156 9.95955C18.1991 9.55568 17.7869 9.18601 17.3821 8.85297C16.2421 7.91517 15.2041 7.30321 14.3349 7.01342ZM20 8.51611C19.5482 8.07833 19.098 7.67485 18.6527 7.30848C17.4046 6.28165 16.1514 5.51084 14.9676 5.11611C13.7852 4.72188 12.554 4.66902 11.5 5.27757C10.446 5.88613 9.87616 6.97876 9.62639 8.19984C9.37631 9.42245 9.41727 10.8931 9.68247 12.4874C9.77709 13.0563 9.90144 13.6479 10.0547 14.258C9.44962 14.4305 8.87513 14.6185 8.33517 14.821C6.82185 15.3885 5.52772 16.0884 4.59395 16.9163C3.66135 17.7431 3 18.7829 3 20C3 21.2171 3.66135 22.2569 4.59395 23.0837C5.52772 23.9116 6.82185 24.6115 8.33517 25.179C8.87513 25.3815 9.44962 25.5695 10.0547 25.7419C9.90144 26.3521 9.77709 26.9437 9.68247 27.5126C9.41727 29.1069 9.37631 30.5776 9.62639 31.8002C9.87616 33.0212 10.446 34.1139 11.5 34.7224C12.554 35.331 13.7852 35.2781 14.9676 34.8839C16.1514 34.4892 17.4046 33.7184 18.6527 32.6915C19.098 32.3252 19.5482 31.9217 20 31.4839C20.4518 31.9217 20.902 32.3252 21.3473 32.6915C22.5954 33.7184 23.8486 34.4892 25.0324 34.8839C26.2148 35.2781 27.446 35.331 28.5 34.7224C29.554 34.1139 30.1238 33.0212 30.3736 31.8002C30.6237 30.5776 30.5827 29.1069 30.3175 27.5126C30.2229 26.9437 30.0986 26.3521 29.9453 25.7419C30.5504 25.5695 31.1249 25.3815 31.6648 25.179C33.1782 24.6115 34.4723 23.9116 35.406 23.0837C36.3386 22.2569 37 21.2171 37 20C37 18.7829 36.3386 17.7431 35.406 16.9163C34.4723 16.0884 33.1782 15.3885 31.6648 14.821C31.1249 14.6185 30.5504 14.4305 29.9454 14.258C30.0986 13.6479 30.2229 13.0563 30.3175 12.4874C30.5827 10.8931 30.6237 9.42245 30.3736 8.19984C30.1238 6.97876 29.554 5.88613 28.5 5.27757C27.446 4.66902 26.2148 4.72188 25.0324 5.11611C23.8486 5.51084 22.5954 6.28165 21.3473 7.30848C20.902 7.67485 20.4518 8.07833 20 8.51611ZM20 11.4123C19.5555 11.9141 19.1103 12.451 18.6682 13.02C19.1079 13.0067 19.5521 13 20 13C20.4479 13 20.8921 13.0067 21.3318 13.02C20.8897 12.451 20.4445 11.9141 20 11.4123ZM23.9383 13.1787C23.1069 12.004 22.2484 10.9244 21.3844 9.95955C21.8009 9.55568 22.2131 9.18601 22.6179 8.85297C23.7579 7.91517 24.7959 7.30321 25.6651 7.01342C26.5356 6.72314 27.1192 6.78975 27.5 7.00962C27.8808 7.2295 28.2303 7.70154 28.4142 8.60064C28.5978 9.49821 28.5868 10.7032 28.3446 12.1593C28.2586 12.6764 28.1446 13.2183 28.0031 13.7809C26.7356 13.5151 25.3713 13.3113 23.9383 13.1787ZM22.8314 15.0959C21.9153 15.033 20.969 15 20 15C19.031 15 18.0847 15.033 17.1686 15.0959C16.6561 15.8578 16.1544 16.6608 15.6699 17.5C15.1854 18.3392 14.7408 19.1752 14.3373 20C14.7408 20.8248 15.1854 21.6608 15.6699 22.5C16.1544 23.3392 16.6561 24.1422 17.1686 24.9041C18.0847 24.967 19.031 25 20 25C20.969 25 21.9153 24.967 22.8314 24.9041C23.3439 24.1422 23.8456 23.3392 24.3301 22.5C24.8146 21.6608 25.2592 20.8248 25.6627 20C25.2592 19.1752 24.8146 18.3392 24.3301 17.5C23.8456 16.6608 23.3439 15.8578 22.8314 15.0959ZM26.7107 17.6634C26.5024 17.276 26.2861 16.8879 26.0622 16.5C25.8382 16.1121 25.6103 15.7308 25.3789 15.3567C26.0928 15.455 26.7803 15.5721 27.4372 15.7061C27.2248 16.342 26.9825 16.996 26.7107 17.6634ZM26.7107 22.3366C26.5024 22.7241 26.2861 23.1121 26.0622 23.5C25.8382 23.8879 25.6103 24.2692 25.3789 24.6433C26.0928 24.545 26.7803 24.4279 27.4372 24.2939C27.2248 23.658 26.9825 23.004 26.7107 22.3366ZM29.3875 23.8213C28.9839 22.5907 28.4782 21.3074 27.8765 20C28.4782 18.6926 28.9839 17.4093 29.3875 16.1787C29.9455 16.3374 30.4718 16.5096 30.9626 16.6937C32.3447 17.212 33.3937 17.805 34.0792 18.4128C34.7659 19.0216 35 19.5603 35 20C35 20.4397 34.7659 20.9784 34.0792 21.5872C33.3937 22.195 32.3447 22.788 30.9626 23.3063C30.4718 23.4904 29.9455 23.6626 29.3875 23.8213ZM28.0031 26.2191C26.7356 26.4849 25.3713 26.6887 23.9383 26.8213C23.1069 27.996 22.2484 29.0756 21.3844 30.0405C21.8009 30.4443 22.2131 30.814 22.6179 31.147C23.7579 32.0848 24.7959 32.6968 25.6651 32.9866C26.5356 33.2769 27.1192 33.2103 27.5 32.9904C27.8808 32.7705 28.2303 32.2985 28.4142 31.3994C28.5978 30.5018 28.5868 29.2968 28.3446 27.8407C28.2586 27.3236 28.1446 26.7817 28.0031 26.2191ZM20 28.5877C20.4445 28.0859 20.8897 27.549 21.3318 26.98C20.8921 26.9932 20.4479 27 20 27C19.5521 27 19.1079 26.9932 18.6682 26.98C19.1103 27.549 19.5555 28.0859 20 28.5877ZM14.6211 24.6433C14.3897 24.2692 14.1618 23.8879 13.9378 23.5C13.7139 23.1121 13.4976 22.7241 13.2893 22.3366C13.0175 23.004 12.7752 23.658 12.5628 24.2939C13.2197 24.4279 13.9072 24.545 14.6211 24.6433ZM11.9969 26.2191C13.2644 26.4849 14.6287 26.6887 16.0617 26.8213C16.8931 27.996 17.7516 29.0756 18.6156 30.0405C18.1991 30.4443 17.7869 30.814 17.3821 31.147C16.2421 32.0848 15.2041 32.6968 14.3349 32.9866C13.4644 33.2769 12.8808 33.2103 12.5 32.9904C12.1192 32.7705 11.7697 32.2985 11.5858 31.3994C11.4022 30.5018 11.4132 29.2968 11.6554 27.8407C11.7414 27.3236 11.8554 26.7817 11.9969 26.2191ZM10.6125 23.8213C11.0161 22.5907 11.5218 21.3074 12.1235 20C11.5218 18.6926 11.0161 17.4093 10.6125 16.1787C10.0545 16.3374 9.52824 16.5096 9.03741 16.6937C7.6553 17.212 6.60629 17.805 5.92077 18.4128C5.23408 19.0216 5 19.5603 5 20C5 20.4397 5.23408 20.9784 5.92077 21.5872C6.60629 22.195 7.6553 22.788 9.03741 23.3063C9.52824 23.4904 10.0545 23.6626 10.6125 23.8213ZM12.5628 15.7061C12.7752 16.342 13.0175 16.996 13.2893 17.6634C13.4976 17.276 13.7139 16.8879 13.9378 16.5C14.1618 16.1121 14.3897 15.7308 14.6211 15.3567C13.9072 15.455 13.2197 15.5721 12.5628 15.7061ZM18 20C18 18.8954 18.8954 18 20 18C21.1046 18 22 18.8954 22 20C22 21.1046 21.1046 22 20 22C18.8954 22 18 21.1046 18 20Z"
        clip-rule="evenodd" class="color6DC6E9 svgShape"></path>
    </svg></g>
</svg>
