<svg id="SvgjsSvg1001" width="256" height="256"
  xmlns="http://www.w3.org/2000/svg" version="1.1"
  xmlns:xlink="http://www.w3.org/1999/xlink"
  xmlns:svgjs="http://svgjs.com/svgjs">
  <defs id="SvgjsDefs1002"></defs>
  <g id="SvgjsG1008">
    <svg xmlns="http://www.w3.org/2000/svg" fill="none" viewBox="0 0 40 40" width="256" height="256">
      <path fill="#35495e" fill-rule="evenodd" d="M11.4453 9.16795C11.9048 8.8616 12.5257 8.98577 12.832 9.4453L20 20.1972L27.1679 9.4453C27.4743 8.98577 28.0952 8.8616 28.5547 9.16795C29.0142 9.4743 29.1384 10.0952 28.8321 10.5547L20.832 22.5547C20.6466 22.8329 20.3344 23 20 23C19.6656 23 19.3534 22.8329 19.1679 22.5547L11.1679 10.5547C10.8616 10.0952 10.9858 9.4743 11.4453 9.16795Z" clip-rule="evenodd" class="color35495E svgShape"></path>
      <path fill="#42b883" fill-rule="evenodd" d="M6.45501 9.16155C6.91807 8.86056 7.53745 8.99195 7.83844 9.45501L20 28.1651L32.1616 9.45501C32.4625 8.99195 33.0819 8.86056 33.545 9.16155C34.008 9.46254 34.1394 10.0819 33.8384 10.545L20.8384 30.545C20.654 30.8288 20.3385 31 20 31C19.6615 31 19.346 30.8288 19.1616 30.545L6.16155 10.545C5.86056 10.0819 5.99195 9.46254 6.45501 9.16155Z" clip-rule="evenodd" class="color42B883 svgShape"></path>
    </svg>
  </g>
</svg>
